<?xml version="1.0" encoding="utf-8"?>
<!-- Generator: Adobe Illustrator 24.3.0, SVG Export Plug-In . SVG Version: 6.00 Build 0)  -->
<svg version="1.1" id="Layer_1" xmlns="http://www.w3.org/2000/svg" xmlns:xlink="http://www.w3.org/1999/xlink" x="0px" y="0px"
	 viewBox="0 0 389.9 339.9" style="enable-background:new 0 0 389.9 339.9;" xml:space="preserve">

<path class="st0" d="M353.6,257.9c1.7-2.2,3.3-4.5,4.8-6.9c2-3.7,3.5-7.6,5.3-11.4s3.7-7.6,5.4-11.5c1.3-3,7.9-7.7,10.9-7.6
	c1.4,0,2.8-0.9,4.3-1.1c1.1-0.2,3-0.5,3.4,0.2c1.1,1.9,2.8,4.6,2.3,6.2c-1,3.4-3.4,6.2-5.1,9.3s-3.2,6.6-5,9.8
	c-2.2,4.1-2.9,9.1-6.3,12.7c-1.8,2-2.1,5.8-3.3,8.7c-1.5,3.7-3.2,7.3-4.7,10.9c-1.3,3.1-2.5,6.2-3.5,9.4c-1.5,4.4-2.9,8.8-4.2,13.2
	c-1,3.5-1.9,7.1-2.9,10.7c-1.7,6.1-2.8,12.6-5.1,18.3c-3.2,7.9-12.1,11.8-18.8,10.9c-1.7-0.2-4.3-6.1-3.3-8c1.6-2.7,0-4.1-1.2-5.8
	c-1.1-1.2-2.1-2.5-3-3.9c-1.8-3.3-3.8-6.4-6.1-9.3c-4.2-5.2-7.4-11.7-10.7-17.9c-1.1-2.1-1.5-4.6-3.9-5.4c-0.3-0.1-0.5-0.5-0.7-0.9
	c-3-4.9-5.9-9.8-8.9-14.6c-2.7-4.3-5.5-8.4-8.1-12.7c-3.6-6.1-6.5-12.8-10.6-18.2c-2.3-3-4.5-5.7-6-9.2s-1.2-6.5,1.8-8.5
	c3.8-2.7,7.9-4.8,12.3-6.5c1.9-0.7,4.3,0.4,6.4,2.4c3.8,3.5,5.3,8.5,7.9,12.8c2.9,4.9,6.6,9.2,10,13.7c0.1,0.1,0.1,0.2,0.2,0.3
	c3.9,6.8,7.8,13.7,11.6,20.5c0.4,0.8,0.9,1.5,1.4,2.3c2.1,3.2,4.1,6.5,6.3,9.7c0.8,0.9,1.8,1.8,2.8,2.4c0.6-1.4,1.9-3,1.6-4.2
	c-1-5.7-3.2-11.3-3.3-16.9c-0.1-7.3-3.9-13-4.9-19.7c-1.6-10.1-5.5-19-9.7-27.7c-4.2-8.7-9.4-16.9-14.2-25.4
	c-0.9-1.6-1.7-3.2-2.6-4.7c-2-3.1-4.1-6.1-6.2-9.2c-0.6-0.9-1-2.1-1.5-3c-1.4-2.3-1.6-5.6-4.7-6.4c-0.7-0.2-1.1-1.9-1.7-2.8
	c-1.5-2.1-1.7-5.5-4.8-6c-0.6-0.1-0.9-1.7-1.5-2.5c-2.9-3.7-5.9-7.4-8.8-11c-0.5-0.6-1-1-1.5-1.6c-3.1-3.4-6.3-6.8-9.3-10.3
	c-2.4-2.8-4.5-5.9-7-8.5c-3.2-3.4-6.8-6.5-10.2-9.7c-2.4-2.3-4.8-4.7-7.4-6.9c-2.1-1.8-4.4-3.4-6.6-5.1c-1.8-1.4-3.6-2.7-5.3-4.3
	c-3.2-3-6.1-6.3-9.5-9c-3-2.4-6.5-3.8-9.6-6c-3.4-2.4-6.6-5.3-10-7.9c-1.1-1-2.4-1.9-3.6-2.7c-4.5-2.5-9.8-3.9-13.5-7.5
	c-6-5.9-14.1-6.6-20.2-12c-3.2-2.8-7.8-3.3-11.7-5.1c-3.8-1.7-7.4-3.9-11.1-5.5c-3-1.3-6.2-1.9-9.2-3c-3.8-1.4-7.5-3.3-11.4-4.5
	c-6.3-2-12.8-3.6-19.1-5.4c-2.7-0.8-5.4-1.6-8.2-2.4c-2-0.6-4-1.2-6-1.6c-5.6-1.3-11.3-2.9-17-3.7S47.8,20.3,42,19.8
	c-2.5-0.2-5-1.3-7.6-1.6c-2.2-0.3-4.5,0.2-6.7,0c-3.5-0.2-7.1-0.9-10.6-1c-2.7,0-5.5,0.8-8.2,1c-2.3,0.2-4.7,0.1-7-0.5
	c-2-0.5-2.7-4.8-0.9-7.5c1.8-2.7,4-5.1,6.6-7.1c4.6-3.6,9.9-3.5,15.2-2.7c2,0.2,4,0.2,6,0c4.7,0,9.5-0.3,14.2-0.1
	c4.4,0.3,8.7,1.2,13.1,1.7c1.5,0.2,3.1,0.2,4.6,0.4c5.9,0.6,11.9,0.9,17.7,2c4.7,0.8,9.3,2.6,13.9,3.9c4.4,1.2,8.8,2.1,13.2,3.2
	c4.8,1.2,9.6,2.5,14.4,3.8c3.5,0.9,7,1.8,10.4,2.9c3.9,1.3,7.8,2.9,11.7,4.4s7.8,3.4,11.7,5.2c6.4,2.9,12.7,5.9,19,9.1
	c4.2,2.1,8.3,4.4,12.4,6.8c3.2,1.8,6.4,3.7,9.5,5.7s6.3,3.8,9.4,5.9s6.3,4.5,9.5,6.8c3,2.1,5.9,4.1,8.9,6.2c2,1.3,4,2.5,5.9,4
	c5.1,3.9,10.2,7.7,15.2,11.8c2.4,1.9,4.3,4.5,6.6,6.6c2,1.8,4.4,3.3,6.4,5.1c2.1,1.8,3.7,3.8,5.6,5.6c3.1,3,6.3,5.9,9.2,9.1
	c2.3,2.5,4.1,5.5,6.4,8s5.2,4.8,7.6,7.4c2.4,2.6,4.4,5.3,6.5,8c1.5,1.9,3.3,3.5,4.7,5.5c2.8,3.9,5.3,8.1,8,12c1.2,1.8,3,3,4.2,4.8
	c3.4,5.2,6.5,10.6,9.8,15.9c2.3,3.8,5.1,7.2,7.1,11.2c5.4,10.8,10.9,21.6,15.7,32.8c2.6,6.1,3.8,13.1,5.7,19.6c1.2,4,2.7,8,3.7,12
	c0.6,3.2,0.9,6.4,1.1,9.6L353.6,257.9z"/>
</svg>
