<svg xmlns="http://www.w3.org/2000/svg" viewBox="0 0 354.59 368.57"><defs><style>.cls-1{fill:#feddad;}</style></defs><g id="Layer_1_copy" data-name="Layer 1 copy"><path class="cls-1" d="M344.47,20a14.69,14.69,0,0,1,9.36,3.35,22.53,22.53,0,0,1,5.54,6.73A96.27,96.27,0,0,1,372.59,48a57.69,57.69,0,0,1,4.52,9.92c1.85,5.56,1.51,10.3-1,14.1a10.06,10.06,0,0,1-1.49,1.76c-1.78,1.67-5.21,5.31-11.48,13.19-5.25,6.61-11.3,14.68-18,24s-14.06,20-21.81,31.7S307.72,166.6,300,179.2s-15.35,25.48-22.66,38.45-13.93,25.58-19.8,37.69-10.94,23.55-15.06,34.06a127.91,127.91,0,0,0-7.74,26.54c-.94,6-.76,9.58-.43,11.5,0,.14,0,.25.06.34a26,26,0,0,0,4.57,1.33,29.72,29.72,0,0,0,5.59.51,38.09,38.09,0,0,0,8-.89c3.09-.67,6.29-1.52,9.48-2.53a10.34,10.34,0,0,1,2.41-.44c.43,0,.83,0,1.23,0,8.29,0,14.08,5.54,14.08,13.48a26.78,26.78,0,0,1-4,13.3,53.59,53.59,0,0,1-8.51,10.94c-4.31,4.31-8.61,6.87-13.16,7.84a7.5,7.5,0,0,1-.93.15c-3.3.39-6.61.69-9.83.89s-6.89.29-10.72.29A103.13,103.13,0,0,1,221.5,372a54.16,54.16,0,0,1-9.57-2,9.34,9.34,0,0,1-1.28-.25C192.46,365,185,353.7,181.88,345.05c-3.88-10.87-4.59-24.32-2.12-40l0-.17a222,222,0,0,1,8.69-32.66c4-11.61,8.84-23.8,14.49-36.23s11.94-25.18,18.82-38.21,14.11-26,21.56-38.63q4-6.78,8.05-13.53c-11.78,10.93-23.43,22.18-34.72,33.55C203,193,189.64,207,177.07,220.74c-12.36,13.53-23.79,26.63-34,38.95-5.92,10.61-11.62,21-16.94,30.8-5.5,10.18-10.45,19.57-14.71,27.91s-7.84,15.67-10.61,21.76c-3.42,7.49-4.21,10.57-4.4,11.55a9.9,9.9,0,0,1-1.15,3.14,12.48,12.48,0,0,1-11,6.31,15.61,15.61,0,0,1-4.9-.83,36.15,36.15,0,0,1-9-4.74A83.22,83.22,0,0,1,53.51,339.7a57.29,57.29,0,0,1-5.86-8.91c-2.45-4.71-3.1-8.89-2-12.78a8.75,8.75,0,0,1,.3-.86c3.06-7.85,7.81-18.09,14.12-30.43,6.19-12.09,13.42-25.61,21.49-40.18,8-14.42,16.69-29.8,25.84-45.71s18-31.39,26.73-46.53c6.72-11.77,13.22-23,19.3-33.33.11-.18.22-.36.32-.54-5.23,5.64-10.5,11.52-15.71,17.55-7,8.14-14,16.45-20.72,24.7S104.52,178.78,99.2,186s-9.84,13.72-13.47,19.4c-4.44,6.92-5.6,10-5.89,11a10.3,10.3,0,0,1-1,2.33l-1.67,2.77a10,10,0,0,1-1.5,1.93,11.4,11.4,0,0,1-8.08,3.36c-6.46,0-10.65-5.28-12.23-7.27a75.24,75.24,0,0,1-8.52-14.07A83,83,0,0,1,40.68,188a31.32,31.32,0,0,1-.38-13.91,9.83,9.83,0,0,1,1.05-4.56c1.65-3.29,4.78-7.78,9.88-14.12,4.68-5.83,10.53-12.5,17.39-19.82s14.55-15.17,23-23.45,17.44-16.63,26.54-24.71,18.42-15.88,27.6-23.1S164,50.67,172.24,45.42a115,115,0,0,1,24-12A40.73,40.73,0,0,1,209.4,31a24.3,24.3,0,0,1,9.66,1.88,9.92,9.92,0,0,1,3.68,2.71,29.71,29.71,0,0,1,2.9,3,57.57,57.57,0,0,1,5.72,8.21A52.4,52.4,0,0,1,236.18,58a29.67,29.67,0,0,1,1,14,94.81,94.81,0,0,1-5.52,19.53c-2,5.15-4.33,10.66-7,16.45,9.17-8.92,18.51-17.58,27.9-25.87,13.49-11.89,27.45-23,41.5-33.17a382.29,382.29,0,0,1,42.24-26.49,10.19,10.19,0,0,1,2.58-1.39,16.55,16.55,0,0,1,5.6-1m0-8a24.52,24.52,0,0,0-8.31,1.49,18.69,18.69,0,0,0-4.1,2.11,389.23,389.23,0,0,0-42.68,26.81C275.13,52.71,261,64,247.26,76.11L244,79q.69-3,1.11-5.74a37.5,37.5,0,0,0-1.24-17.63,60.44,60.44,0,0,0-5.57-12.85,66.13,66.13,0,0,0-6.53-9.35A39.54,39.54,0,0,0,228.44,30a18.11,18.11,0,0,0-6.25-4.43A32.08,32.08,0,0,0,209.4,23a48.56,48.56,0,0,0-15.7,2.85A122.71,122.71,0,0,0,168,38.66,330,330,0,0,0,140.84,58c-9.36,7.36-18.77,15.24-28,23.41S94.6,98,86.05,106.38s-16.32,16.28-23.27,23.7-13,14.28-17.79,20.28c-5.5,6.85-8.83,11.64-10.79,15.54a17.83,17.83,0,0,0-1.88,7.23,39.73,39.73,0,0,0,.56,16.6,91,91,0,0,0,6.73,19.18,83.27,83.27,0,0,0,9.47,15.58c2,2.54,8.17,10.29,18.49,10.29a19.33,19.33,0,0,0,13.72-5.69A17.64,17.64,0,0,0,84,225.61L85.56,223q-5.72,10.14-11,19.63c-8.1,14.62-15.37,28.22-21.61,40.41-6.4,12.53-11.25,23-14.42,31.08-.24.6-.41,1.13-.52,1.49l0,.08,0,.08c-1.69,5.87-.82,12.15,2.57,18.68a65.06,65.06,0,0,0,6.68,10.17,90.73,90.73,0,0,0,18.58,17.52,43.87,43.87,0,0,0,11,5.74,23.67,23.67,0,0,0,7.45,1.25,20.42,20.42,0,0,0,17.89-10.32,18,18,0,0,0,2.07-5.63c0-.25.62-2.72,3.82-9.73,2.71-6,6.23-13.18,10.45-21.44s9.14-17.59,14.63-27.75c5.13-9.48,10.69-19.59,16.53-30.06C159.75,252.12,171,239.3,183,226.14c10.63-11.64,21.86-23.49,33.46-35.3-.58,1.08-1.15,2.16-1.72,3.24-7,13.18-13.36,26.18-19,38.64-5.74,12.62-10.71,25-14.78,37a229.68,229.68,0,0,0-9,33.82c0,.09,0,.19,0,.28v.07c-2.68,17-1.85,31.76,2.49,43.9,3.72,10.46,12.69,24.13,34.27,29.79.55.14,1.07.25,1.58.34A61.79,61.79,0,0,0,220.6,380a111.38,111.38,0,0,0,12,.66c3.93,0,7.7-.1,11.18-.3s6.81-.52,10.24-.93a15.49,15.49,0,0,0,1.77-.28c6.09-1.31,11.69-4.58,17.11-10a61.78,61.78,0,0,0,9.78-12.6,34.62,34.62,0,0,0,5-17.3c0-12.45-9.29-21.48-22.08-21.48-.62,0-1.19,0-1.76.06a18.53,18.53,0,0,0-4.23.77h-.06c-2.92.93-5.87,1.71-8.77,2.34a29.92,29.92,0,0,1-6.31.71,23.17,23.17,0,0,1-2.39-.12c.08-1.18.24-2.62.5-4.33a120.48,120.48,0,0,1,7.28-24.83c4-10.31,9-21.57,14.82-33.51s12.39-24.51,19.57-37.25c7.32-13,14.89-25.84,22.5-38.18,7.73-12.55,15.54-24.77,23.21-36.32s15-22.25,21.65-31.46,12.6-17.2,17.75-23.68c6.29-7.91,9.4-11.12,10.69-12.34a17.36,17.36,0,0,0,2.66-3.13c2.74-4.12,5.29-11.1,2-21.09a65.47,65.47,0,0,0-5.14-11.32,98.33,98.33,0,0,0-7.29-11,100.24,100.24,0,0,0-6.42-7.7,30.43,30.43,0,0,0-7-8.15A22.57,22.57,0,0,0,344.47,12ZM86.2,221.9a18.56,18.56,0,0,0,1.32-3.26c0-.1.79-2.45,4.94-8.93q2.12-3.3,4.7-7.07-5.66,9.86-11,19.26Z" transform="translate(-31.69 -12.04)"/></g><g id="Layer_1" data-name="Layer 1"><path class="cls-1" d="M342.28,30.46a5.1,5.1,0,0,1,5.26.7,13.21,13.21,0,0,1,3.6,4.84,77.65,77.65,0,0,1,6.79,7.9,81.07,81.07,0,0,1,5.95,9,48,48,0,0,1,3.74,8.17q1.25,3.75.14,5.41a143.59,143.59,0,0,0-12.47,14.26q-8,10.13-18.28,24.38t-22,32Q303.21,154.85,291.44,174t-22.85,38.78Q257.51,232.42,248.5,251t-15.37,34.77q-6.37,16.2-8.31,28.67a47,47,0,0,0-.42,14.68q1,5.82,5.68,7.76a36,36,0,0,0,6.93,2.08,40.48,40.48,0,0,0,7.48.69,47.71,47.71,0,0,0,10.11-1.11q5.11-1.11,10.39-2.77c3.13-.19,4.71,1,4.71,3.46a16.89,16.89,0,0,1-2.64,8.31,42.92,42.92,0,0,1-6.92,8.87q-4.31,4.29-8.17,5.12-4.72.56-9.28.83t-10.11.28a90.21,90.21,0,0,1-10-.55,43.27,43.27,0,0,1-9.69-2.22l.27.28q-16.89-4.44-21.88-18.42t-1.66-35.05A210.35,210.35,0,0,1,198,275.49q5.82-17,14.13-35.32t18.56-37.68q10.25-19.38,21.33-38.22t22.3-36.71Q285.49,109.7,296,93.9q-21.88,17.46-43.77,37.4t-42.66,40.86Q188.8,193.09,169.69,214t-34.9,40q-9.15,16.35-17.46,31.72t-14.82,28.12Q96,326.6,91.71,336t-5.12,13.85q-1.11,1.94-4,1a26.72,26.72,0,0,1-6.51-3.46,69.44,69.44,0,0,1-7.62-6.24,66.08,66.08,0,0,1-7.06-7.62,46.68,46.68,0,0,1-4.85-7.34q-1.8-3.46-1.25-5.4,4.42-11.36,13.71-29.5t21.34-39.89q12-21.75,25.76-45.57t26.73-46.54q10-17.46,19.25-33.24T178.56,98.2q7.2-12.06,12.32-19.4t6.79-7.89q-3.33-.55-10.11,4.15a153.56,153.56,0,0,0-15.93,13.16q-9.13,8.46-19.81,19.67t-21.33,23.55q-10.67,12.33-20.91,24.93T91.16,180.05Q83,191.14,77.31,200t-7.07,13.57l-1.66,2.77q-1.67,1.66-5.4-3a64.47,64.47,0,0,1-7.34-12.19,72,72,0,0,1-5.41-15.38q-1.8-7.89.7-12.32l-.83.55q1.94-3.87,8.72-12.33t16.9-19.25Q86,131.58,98.64,119.25t26.17-24.38q13.58-12,27.15-22.71a309.59,309.59,0,0,1,25.63-18.29,105.14,105.14,0,0,1,21.88-10.94q9.83-3.33,15.65-.83h-.55c.73.19,1.89,1.2,3.46,3a47.88,47.88,0,0,1,4.71,6.78,42.19,42.19,0,0,1,3.88,9,19.58,19.58,0,0,1,.69,9.42,85.31,85.31,0,0,1-5,17.59q-3.87,10.11-9.69,22t-13.16,25.48q-7.33,13.59-15.1,28l-1.1,2.22Q201,146,220.11,126.59t39.06-37Q279.12,72,299.89,57.06A369.27,369.27,0,0,1,342,30.74Z" transform="translate(-31.69 -12.04)"/></g></svg>